<svg id="Layer_1" data-name="Layer 1" xmlns="http://www.w3.org/2000/svg" viewBox="0 0 512 512"><defs><style>.cls-1{fill:#141f38;}</style></defs><title>solar_system_style_2</title><path class="cls-1" d="M512,256a38.39,38.39,0,0,0-28.53-37.07C465.61,102.23,364.9,12.8,243.2,12.8,108.88,12.8,0,121.68,0,256S108.88,499.2,243.2,499.2c121.7,0,222.38-89.43,240.25-206.12A38.39,38.39,0,0,0,512,256ZM243.2,473.6C123.21,473.6,25.6,376,25.6,256S123.21,38.4,243.2,38.4c108.06,0,197.86,79.21,214.66,182.6a38.36,38.36,0,0,0,0,70C441.07,394.39,351.26,473.6,243.2,473.6ZM473.6,268.8A12.8,12.8,0,1,1,486.4,256,12.81,12.81,0,0,1,473.6,268.8ZM243.2,102.4a152.68,152.68,0,0,0-71.12,17.54,38.35,38.35,0,0,0-54.28,47.45,153.56,153.56,0,1,0,125.4-65Zm-89.6,38.4a12.8,12.8,0,1,1-12.8,12.8A12.81,12.81,0,0,1,153.6,140.8ZM333.71,346.51A127.88,127.88,0,0,1,135.35,187.39a38.35,38.35,0,0,0,54.08-47.5A128,128,0,0,1,333.71,346.51ZM243.2,192a64,64,0,1,0,64,64A64,64,0,0,0,243.2,192Zm0,102.4A38.4,38.4,0,1,1,281.6,256,38.44,38.44,0,0,1,243.2,294.4ZM448,44.8A19.2,19.2,0,1,1,467.2,64,19.2,19.2,0,0,1,448,44.8ZM51.2,473.6a12.8,12.8,0,1,1-12.8-12.8A12.8,12.8,0,0,1,51.2,473.6Z"/></svg>